<svg width="30" height="33" viewBox="0 0 30 33" fill="none" xmlns="http://www.w3.org/2000/svg">
<path fill-rule="evenodd" clip-rule="evenodd" d="M4.93622 3C4.93622 7 4.93622 11 4.93622 15C3.93622 15 2.93622 15 1.93622 15C3.45922 11.1205 4.45922 7.12049 4.93622 3Z" fill="#7D7D7D"/>
<path fill-rule="evenodd" clip-rule="evenodd" d="M12.9362 3C13.2422 5.88544 12.9092 8.5521 11.9362 11C12.1002 8.3127 11.9332 5.64603 11.4362 3C10.7282 2.11947 9.89423 1.4528 8.93623 1C7.97823 1.4528 7.14423 2.11947 6.43623 3C5.93723 6.65159 5.77123 10.3183 5.93623 14C5.25323 15.6765 3.91923 16.3432 1.93623 16C1.93623 17 1.93623 18 1.93623 19C1.94423 22.0448 2.27723 25.0448 2.93623 28C1.93923 28.0299 1.27223 27.5299 0.936228 26.5C-0.113772 23.0449 -0.280772 19.5449 0.436228 16C0.819228 15.444 1.31923 15.1107 1.93623 15C2.93623 15 3.93623 15 4.93623 15C4.93623 11 4.93623 7 4.93623 3C7.60323 -1 10.2692 -1 12.9362 3Z" fill="#26221F"/>
<path fill-rule="evenodd" clip-rule="evenodd" d="M8.93623 1C7.68223 5.31825 7.68223 9.6516 8.93623 14C7.93623 14 6.93623 14 5.93623 14C5.77123 10.3183 5.93723 6.65159 6.43623 3C7.14423 2.11947 7.97823 1.4528 8.93623 1Z" fill="#CDA87D"/>
<path fill-rule="evenodd" clip-rule="evenodd" d="M8.93622 1C9.89422 1.4528 10.7282 2.11947 11.4362 3C11.9332 5.64603 12.1002 8.3127 11.9362 11C12.2692 11.6667 12.6032 12.3333 12.9362 13C11.7012 14.8062 10.3672 16.4729 8.93622 18C8.27022 21.1893 7.60322 24.5227 6.93622 28C6.10922 26.338 4.94322 25.0046 3.43622 24C3.23822 22.1183 2.73822 20.4516 1.93622 19C1.93622 18 1.93622 17 1.93622 16C3.91922 16.3432 5.25322 15.6765 5.93622 14C6.93622 14 7.93622 14 8.93622 14C7.68222 9.6516 7.68222 5.31825 8.93622 1Z" fill="#F0E0C8"/>
<path fill-rule="evenodd" clip-rule="evenodd" d="M12.9362 3C13.7532 5.46864 14.2532 8.13531 14.4362 11C17.0292 8.6627 19.8622 8.49605 22.9362 10.5C23.6882 11.1708 24.0222 12.0041 23.9362 13C21.6792 12.5383 19.6792 11.5383 17.9362 10C16.5812 10.6882 15.5812 11.6882 14.9362 13C14.2692 13 13.6032 13 12.9362 13C12.6032 12.3333 12.2692 11.6667 11.9362 11C12.9092 8.5521 13.2422 5.88544 12.9362 3Z" fill="#5F5C57"/>
<path fill-rule="evenodd" clip-rule="evenodd" d="M23.9362 13C24.1722 15.3704 25.1722 17.3704 26.9362 19C26.0392 19.1691 25.0392 19.5024 23.9362 20C24.1452 20.586 24.4792 21.086 24.9362 21.5C23.6432 21.99 22.3092 22.1567 20.9362 22C20.9362 20 19.9362 19 17.9362 19C17.8972 17.9168 17.5632 16.9168 16.9362 16C18.2692 15.6667 19.6032 15.3333 20.9362 15C19.4132 13.2175 17.4132 12.5508 14.9362 13C15.5812 11.6882 16.5812 10.6882 17.9362 10C19.6792 11.5383 21.6792 12.5383 23.9362 13Z" fill="#DFD2C2"/>
<path fill-rule="evenodd" clip-rule="evenodd" d="M12.9362 13C13.6032 13 14.2692 13 14.9362 13C14.7612 15.1208 15.0952 17.1208 15.9362 19C14.6142 19.17 13.4472 18.8366 12.4362 18C11.6432 21.2413 12.1432 24.2413 13.9362 27C13.2692 27 12.6032 27 11.9362 27C11.9362 26.6667 11.9362 26.3333 11.9362 26C11.9362 25.3333 11.6032 25 10.9362 25C9.57122 22.9091 8.90422 20.5758 8.93622 18C10.3672 16.4729 11.7012 14.8062 12.9362 13Z" fill="#D99C2B"/>
<path fill-rule="evenodd" clip-rule="evenodd" d="M14.9362 13C17.4132 12.5508 19.4132 13.2175 20.9362 15C19.6032 15.3333 18.2692 15.6667 16.9362 16C17.5632 16.9168 17.8972 17.9168 17.9362 19C17.2692 19 16.6032 19 15.9362 19C15.0952 17.1208 14.7612 15.1208 14.9362 13Z" fill="#4E463A"/>
<path fill-rule="evenodd" clip-rule="evenodd" d="M8.93622 18C8.90422 20.5758 9.57122 22.9091 10.9362 25C10.3192 24.8893 9.81922 24.556 9.43622 24C8.93922 26.3098 8.77322 28.6432 8.93622 31C7.60322 31 6.26922 31 4.93622 31C5.15122 29.3212 4.48422 28.3212 2.93622 28C2.27722 25.0448 1.94422 22.0448 1.93622 19C2.73822 20.4516 3.23822 22.1183 3.43622 24C4.94322 25.0046 6.10922 26.338 6.93622 28C7.60322 24.5227 8.27022 21.1893 8.93622 18Z" fill="#C39B6B"/>
<path fill-rule="evenodd" clip-rule="evenodd" d="M15.9362 19C16.6032 19 17.2692 19 17.9362 19C19.9362 19 20.9362 20 20.9362 22C22.7052 23.8974 25.0382 25.064 27.9362 25.5C27.1842 26.1708 26.8502 27.0041 26.9362 28C22.3302 29.6207 17.9962 29.2874 13.9362 27C12.1432 24.2413 11.6432 21.2413 12.4362 18C13.4472 18.8366 14.6142 19.17 15.9362 19Z" fill="#FAD861"/>
<path fill-rule="evenodd" clip-rule="evenodd" d="M17.9362 19C19.9362 19 20.9362 20 20.9362 22C18.9362 22 17.9362 21 17.9362 19Z" fill="#5E503A"/>
<path fill-rule="evenodd" clip-rule="evenodd" d="M23.9362 13C24.9322 12.9142 25.7652 13.2476 26.4362 14C26.7962 15.9211 27.6302 17.5878 28.9362 19C28.1232 20.3139 27.1232 21.4805 25.9362 22.5C27.7392 23.1368 29.0722 24.3035 29.9362 26C29.4312 27.4185 28.4312 28.0852 26.9362 28C26.8502 27.0041 27.1842 26.1708 27.9362 25.5C25.0382 25.064 22.7052 23.8974 20.9362 22C22.3092 22.1567 23.6432 21.99 24.9362 21.5C24.4792 21.086 24.1452 20.586 23.9362 20C25.0392 19.5024 26.0392 19.1691 26.9362 19C25.1722 17.3704 24.1722 15.3704 23.9362 13Z" fill="#544C41"/>
<path fill-rule="evenodd" clip-rule="evenodd" d="M10.9362 25C11.6032 25 11.9362 25.3333 11.9362 26C10.4082 27.3021 9.40821 28.9687 8.93621 31C8.77321 28.6432 8.93921 26.3098 9.43621 24C9.81921 24.556 10.3192 24.8893 10.9362 25Z" fill="black"/>
<path fill-rule="evenodd" clip-rule="evenodd" d="M11.9362 27C12.6032 27 13.2692 27 13.9362 27C17.9962 29.2874 22.3302 29.6207 26.9362 28C26.9662 28.9972 26.4662 29.6639 25.4362 30C21.7692 31.3333 18.1032 31.3333 14.4362 30C13.1262 29.3699 12.2922 28.3699 11.9362 27Z" fill="#57513F"/>
<path fill-rule="evenodd" clip-rule="evenodd" d="M2.93621 28C4.48421 28.3212 5.15121 29.3212 4.93621 31C6.26921 31 7.60321 31 8.93621 31C8.64521 32.1491 7.81221 32.8158 6.43621 33C3.80321 32.4106 2.63621 30.744 2.93621 28Z" fill="#5A5652"/>
</svg>
