<svg width="30" height="33" viewBox="0 0 30 33" fill="none" xmlns="http://www.w3.org/2000/svg">
<path fill-rule="evenodd" clip-rule="evenodd" d="M15 2.00066C16.949 3.9786 18.949 5.9786 21 8.00066C20.333 8.00066 19.667 8.00066 19 8.00066C14.241 6.16645 9.241 4.83312 4 4.00066C4.111 3.38324 4.444 2.88324 5 2.50066C8.317 2.00232 11.65 1.83565 15 2.00066Z" fill="#61813C"/>
<path fill-rule="evenodd" clip-rule="evenodd" d="M15 2.0007C11.65 1.83569 8.317 2.00236 5 2.5007C4.444 2.88328 4.111 3.38328 4 4.0007C3.261 3.86969 2.594 4.03636 2 4.5007C2.837 5.51197 3.17 6.67863 3 8.0007C1.315 7.31698 0.315 5.98365 0 4.0007C2.729 1.29834 6.063 -0.0349931 10 0.00069786C12.14 0.0567799 13.806 0.723448 15 2.0007Z" fill="#454840"/>
<path fill-rule="evenodd" clip-rule="evenodd" d="M4 4.00076C9.241 4.83322 14.241 6.16655 19 8.00076C16.54 8.19931 14.207 8.86597 12 10.0008C10.847 11.1876 10.847 12.1876 12 13.0008C11.291 13.9048 10.291 14.2381 9 14.0008C8.921 12.5703 9.254 11.237 10 10.0008C7.599 7.08803 6.266 7.42136 6 11.0008C5.4 9.60056 4.4 8.60058 3 8.00076C3.17 6.67869 2.837 5.51203 2 4.50076C2.594 4.03642 3.261 3.86975 4 4.00076Z" fill="#AAC388"/>
<path fill-rule="evenodd" clip-rule="evenodd" d="M15 2.00059C18.531 1.96576 21.198 3.46576 23 6.50059C22.664 7.53051 21.997 8.03051 21 8.00059C18.949 5.97853 16.949 3.97853 15 2.00059Z" fill="#3B452E"/>
<path fill-rule="evenodd" clip-rule="evenodd" d="M12 13.0007C13.69 13.3571 14.69 14.3571 15 16.0007C15 16.334 15 16.6674 15 17.0007C13.386 15.4261 11.386 14.7594 9 15.0007C8.478 13.2816 7.478 11.9482 6 11.0007C6.266 7.42135 7.599 7.08802 10 10.0007C9.254 11.2369 8.921 12.5702 9 14.0007C10.291 14.238 11.291 13.9047 12 13.0007Z" fill="#10120D"/>
<path fill-rule="evenodd" clip-rule="evenodd" d="M3 8.00073C4.4 8.60055 5.4 9.60053 6 11.0007C7.478 11.9482 8.478 13.2816 9 15.0007C9 15.6674 9 16.334 9 17.0007C7.333 17.0007 5.667 17.0007 4 17.0007C3.992 13.9559 3.659 10.9559 3 8.00073Z" fill="#3C492D"/>
<path fill-rule="evenodd" clip-rule="evenodd" d="M19 8.00073C19.667 8.00073 20.333 8.00073 21 8.00073C19.349 9.62453 17.349 10.9578 15 12.0007C15.355 13.023 16.022 13.6897 17 14.0007C18.333 16.6674 17.667 17.334 15 16.0007C14.69 14.3571 13.69 13.3571 12 13.0007C10.847 12.1875 10.847 11.1875 12 10.0007C14.207 8.86594 16.54 8.19928 19 8.00073Z" fill="#464D32"/>
<path fill-rule="evenodd" clip-rule="evenodd" d="M8.99999 15.0007C11.386 14.7594 13.386 15.4261 15 17.0007C15.709 17.9047 16.709 18.238 18 18.0007C18.256 21.77 17.923 25.4366 17 29.0007C15.401 28.7329 14.068 29.0662 13 30.0007C12.261 30.1317 11.594 29.965 11 29.5007C11.808 27.7949 13.141 26.9616 15 27.0007C15.298 24.1651 14.631 23.6651 13 25.5007C9.68299 25.999 6.34999 26.1657 2.99999 26.0007C2.34799 25.0521 2.01399 23.8854 1.99999 22.5007C1.89299 20.2801 2.55999 18.4468 3.99999 17.0007C5.66699 17.0007 7.33299 17.0007 8.99999 17.0007C8.99999 16.334 8.99999 15.6674 8.99999 15.0007Z" fill="#BB1E30"/>
<path fill-rule="evenodd" clip-rule="evenodd" d="M17 14.0007C20.824 13.7109 24.158 14.7109 27 17.0007C27 18.0007 27 19.0007 27 20.0007C26.096 19.2917 25.763 18.2917 26 17.0007C25 17.0007 24 17.0007 23 17.0007C20.321 17.0253 18.988 18.3587 19 21.0007C19 23.334 19 25.6674 19 28.0007C22.08 28.0349 24.747 27.0349 27 25.0007C27 25.6674 27 26.334 27 27.0007C27.172 27.9923 26.838 28.659 26 29.0007C22.965 30.2342 19.965 30.2342 17 29.0007C17.923 25.4366 18.256 21.77 18 18.0007C16.709 18.238 15.709 17.9047 15 17.0007C15 16.6674 15 16.334 15 16.0007C17.667 17.334 18.333 16.6674 17 14.0007Z" fill="#7A1D28"/>
<path fill-rule="evenodd" clip-rule="evenodd" d="M9 17.0007C9.904 17.7097 10.237 18.7097 10 20.0007C11 20.0007 12 20.0007 13 20.0007C13 21.0007 13 22.0007 13 23.0007C9.819 23.4991 7.153 22.6658 5 20.5007C6.819 19.7604 8.152 18.5938 9 17.0007Z" fill="#F98598"/>
<path fill-rule="evenodd" clip-rule="evenodd" d="M23 17.0007C23.916 19.9603 22.582 21.2936 19 21.0007C18.988 18.3587 20.321 17.0253 23 17.0007Z" fill="#EC7386"/>
<path fill-rule="evenodd" clip-rule="evenodd" d="M23 17.0007C24 17.0007 25 17.0007 26 17.0007C25.763 18.2917 26.096 19.2917 27 20.0007C28.22 21.5503 28.22 23.217 27 25.0007C24.747 27.0349 22.08 28.0349 19 28.0007C19 25.6674 19 23.334 19 21.0007C22.582 21.2936 23.916 19.9603 23 17.0007Z" fill="#C91C32"/>
<path fill-rule="evenodd" clip-rule="evenodd" d="M27 17.0007C29.935 19.325 30.602 22.325 29 26.0007C28.543 26.7982 27.876 27.1316 27 27.0007C27 26.334 27 25.6674 27 25.0007C28.22 23.217 28.22 21.5503 27 20.0007C27 19.0007 27 18.0007 27 17.0007Z" fill="#482F2F"/>
<path fill-rule="evenodd" clip-rule="evenodd" d="M13 30.0007C10.893 30.9689 8.559 31.3023 6 31.0007C4.221 29.831 3.221 28.1643 3 26.0007C6.35 26.1657 9.683 25.999 13 25.5007C14.631 23.6651 15.298 24.1651 15 27.0007C13.141 26.9616 11.808 27.7949 11 29.5007C11.594 29.965 12.261 30.1317 13 30.0007Z" fill="#831F2A"/>
<path fill-rule="evenodd" clip-rule="evenodd" d="M17 29.0006C19.965 30.2341 22.965 30.2341 26 29.0006C25.108 31.2148 23.442 32.2148 21 32.0006C15.867 31.7912 10.867 31.4578 6 31.0006C8.559 31.3022 10.893 30.9688 13 30.0006C14.068 29.0661 15.401 28.7328 17 29.0006Z" fill="#3F2828"/>
</svg>
