<svg width="33" height="33" viewBox="0 0 33 33" fill="none" xmlns="http://www.w3.org/2000/svg">
<path fill-rule="evenodd" clip-rule="evenodd" d="M12.9808 0C14.6478 0 16.3138 0 17.9808 0C19.7458 0.961384 21.7458 1.29472 23.9808 1C23.9808 2.66667 23.9808 4.33333 23.9808 6C22.9808 6 21.9808 6 20.9808 6C20.8948 5.0041 21.2288 4.17076 21.9808 3.5C18.6608 1.99328 15.3278 1.82661 11.9808 3C12.0378 1.89105 12.3708 0.891047 12.9808 0Z" fill="#282E22"/>
<path fill-rule="evenodd" clip-rule="evenodd" d="M20.9808 6.00008C17.3138 6.00008 13.6478 6.00008 9.98083 6.00008C11.0318 5.27773 11.6988 4.27773 11.9808 3.00008C15.3278 1.82669 18.6608 1.99336 21.9808 3.50008C21.2288 4.17084 20.8948 5.00418 20.9808 6.00008Z" fill="#4B6D27"/>
<path fill-rule="evenodd" clip-rule="evenodd" d="M11.9808 3C11.6988 4.27765 11.0318 5.27765 9.98083 6C9.64783 6 9.31383 6 8.98083 6C8.31383 6 7.64783 6 6.98083 6C5.79683 4.81213 5.79683 3.64547 6.98083 2.5C8.58783 2.51872 10.2548 2.68539 11.9808 3Z" fill="#37332C"/>
<path fill-rule="evenodd" clip-rule="evenodd" d="M8.98081 6C9.31381 6 9.64781 6 9.98081 6C13.6478 6 17.3138 6 20.9808 6C21.9808 6 22.9808 6 23.9808 6C25.9808 6 26.9808 7 26.9808 9C27.3138 10.3333 27.6478 11.6667 27.9808 13C27.8118 15.412 28.4778 17.5786 29.9808 19.5C28.9458 22.0354 27.9458 24.5354 26.9808 27C20.5288 27.3761 15.5288 24.8761 11.9808 19.5C10.6958 16.9528 10.6958 14.4528 11.9808 12C15.4178 15.1976 19.2508 18.1976 23.4808 21C25.3068 17.1106 25.1408 13.2773 22.9808 9.5C19.3288 9.00137 15.6628 8.8347 11.9808 9C11.3138 9 10.6478 9 9.98081 9C9.14281 8.65829 8.80881 7.99162 8.98081 7C8.98081 6.66667 8.98081 6.33333 8.98081 6Z" fill="#F1C947"/>
<path fill-rule="evenodd" clip-rule="evenodd" d="M6.98083 5.99998C6.44583 7.94561 5.11283 8.94561 2.98083 8.99998C3.17483 6.58822 4.50783 5.58822 6.98083 5.99998Z" fill="#303A25"/>
<path fill-rule="evenodd" clip-rule="evenodd" d="M23.9808 6C25.9808 6 26.9808 7 26.9808 9C24.9808 9 23.9808 8 23.9808 6Z" fill="#5D503F"/>
<path fill-rule="evenodd" clip-rule="evenodd" d="M6.98082 6C7.64782 6 8.31382 6 8.98082 6C8.98082 6.33333 8.98082 6.66667 8.98082 7C6.35182 10.1633 5.18482 13.83 5.48082 18C5.90282 16.0743 7.06982 15.0743 8.98082 15C8.77682 18.0176 8.44382 21.0176 7.98082 24C7.64782 24 7.31382 24 6.98082 24C7.36182 21.5582 6.69482 20.8915 4.98082 22C4.31382 21.3333 3.64782 20.6667 2.98082 20C1.89482 16.3449 1.89482 12.6782 2.98082 9C5.11282 8.94563 6.44582 7.94563 6.98082 6Z" fill="#5E7D36"/>
<path fill-rule="evenodd" clip-rule="evenodd" d="M8.98083 7C8.80883 7.99162 9.14283 8.65829 9.98083 9C9.96383 11.0648 9.63083 13.0648 8.98083 15C7.06983 15.0743 5.90283 16.0743 5.48083 18C5.18483 13.83 6.35183 10.1633 8.98083 7Z" fill="#AFD297"/>
<path fill-rule="evenodd" clip-rule="evenodd" d="M11.9808 8.99996C15.6628 8.83466 19.3288 9.00133 22.9808 9.49996C25.1408 13.2773 25.3068 17.1106 23.4808 21C19.2508 18.1976 15.4178 15.1976 11.9808 12C11.9808 11 11.9808 9.99996 11.9808 8.99996Z" fill="#FBED86"/>
<path fill-rule="evenodd" clip-rule="evenodd" d="M26.9808 8.99998C27.9768 8.91421 28.8098 9.24754 29.4808 9.99998C30.0418 12.2254 31.0418 14.2254 32.4808 16C33.1478 18.3333 33.1478 20.6667 32.4808 23C32.3588 24.937 31.5258 26.2703 29.9808 27C29.9878 24.4621 30.3218 21.9621 30.9808 19.5C30.8238 16.8254 29.8238 14.6587 27.9808 13C27.6478 11.6667 27.3138 10.3333 26.9808 8.99998Z" fill="#514639"/>
<path fill-rule="evenodd" clip-rule="evenodd" d="M2.98081 9C1.89481 12.6782 1.89481 16.3449 2.98081 20C3.64781 20.6667 4.31381 21.3333 4.98081 22C6.69481 20.8915 7.36181 21.5582 6.98081 24C5.65881 23.83 4.49181 24.1634 3.48081 25C0.297814 21.2863 -0.702186 16.953 0.480814 12C0.716814 10.3807 1.54981 9.38066 2.98081 9Z" fill="#323929"/>
<path fill-rule="evenodd" clip-rule="evenodd" d="M9.98083 9C10.6478 9 11.3138 9 11.9808 9C11.9808 10 11.9808 11 11.9808 12C10.6958 14.4528 10.6958 16.9528 11.9808 19.5C15.5288 24.8761 20.5288 27.3761 26.9808 27C27.9458 24.5354 28.9458 22.0354 29.9808 19.5C28.4778 17.5786 27.8118 15.412 27.9808 13C29.8238 14.6587 30.8238 16.8254 30.9808 19.5C30.3218 21.9621 29.9878 24.4621 29.9808 27C30.2178 28.291 29.8848 29.291 28.9808 30C24.2948 31.1176 19.6278 31.1176 14.9808 30C14.2698 28.2986 12.9358 27.2986 10.9808 27C8.98083 27 7.98083 26 7.98083 24C8.44383 21.0176 8.77683 18.0176 8.98083 15C9.63083 13.0648 9.96383 11.0648 9.98083 9Z" fill="#CC9944"/>
<path fill-rule="evenodd" clip-rule="evenodd" d="M10.9808 27C12.9358 27.2986 14.2698 28.2986 14.9808 30C12.5078 30.4118 11.1748 29.4118 10.9808 27Z" fill="#524627"/>
<path fill-rule="evenodd" clip-rule="evenodd" d="M14.9808 30C19.6278 31.1176 24.2948 31.1176 28.9808 30C26.8978 31.9818 24.2318 32.9818 20.9808 33C18.2508 33.1109 16.2508 32.1109 14.9808 30Z" fill="#4D4234"/>
</svg>
